<svg version="1.2" xmlns="http://www.w3.org/2000/svg" viewBox="0 0 512 512" width="512" height="512"><style>.a{fill:#2b2114}</style><path class="a" d="m405.3 21.3h-298.6c-14 0.1-27.9 2.8-40.8 8.2-13 5.4-24.7 13.2-34.6 23.1-9.9 9.9-17.8 21.7-23.1 34.6-5.4 12.9-8.2 26.8-8.2 40.8v256c0 14 2.8 27.9 8.2 40.8 5.3 12.9 13.2 24.7 23.1 34.6 9.9 9.9 21.6 17.7 34.6 23.1 12.9 5.4 26.8 8.1 40.8 8.2h298.6c14-0.1 27.9-2.8 40.8-8.2 13-5.4 24.7-13.2 34.6-23.1 9.9-9.9 17.8-21.7 23.1-34.6 5.4-12.9 8.2-26.8 8.2-40.8v-256c0-14-2.8-27.9-8.2-40.8-5.3-12.9-13.2-24.7-23.1-34.6-9.9-9.9-21.6-17.7-34.6-23.1-12.9-5.4-26.8-8.1-40.8-8.2zm-298.6 42.7h298.6c6.4 0 12.7 1 18.8 2.8 6 1.9 11.8 4.7 17.1 8.2 5.2 3.6 9.9 7.9 13.9 12.9 4 4.9 7.2 10.5 9.5 16.4l-163.3 163.3c-6 6-13 10.7-20.8 13.9-7.8 3.2-16.1 4.8-24.5 4.8-8.4 0-16.7-1.6-24.5-4.8-7.8-3.2-14.8-7.9-20.8-13.9l-163.3-163.3c2.3-5.9 5.5-11.5 9.5-16.4 4-5 8.7-9.3 13.9-12.9 5.3-3.5 11.1-6.3 17.1-8.2 6.1-1.8 12.4-2.8 18.8-2.8zm298.6 384h-298.6c-8.4 0-16.8-1.7-24.5-4.9-7.8-3.2-14.8-7.9-20.8-13.8-5.9-6-10.6-13-13.9-20.8-3.2-7.8-4.8-16.1-4.8-24.5v-224l137.9 137.8c9.9 9.9 21.6 17.7 34.6 23.1 12.9 5.3 26.8 8.1 40.8 8.1 14 0 27.9-2.8 40.8-8.1 13-5.4 24.7-13.2 34.6-23.1l137.9-137.8v224c0 8.4-1.6 16.7-4.8 24.5-3.3 7.8-8 14.8-13.9 20.8-6 5.9-13 10.6-20.8 13.8-7.7 3.2-16.1 4.9-24.5 4.9z"/></svg>