<svg version="1.2" xmlns="http://www.w3.org/2000/svg" viewBox="0 0 24 24" width="24" height="24"><style>.a{fill:#2b2114}</style><path class="a" d="m9.1 23.7v-8h-2.5v-3.7h2.5v-1.5c0-4.1 1.8-6 5.9-6 0.4 0 0.9 0 1.4 0.1q0.2 0 0.3 0 0.2 0 0.3 0.1 0.1 0 0.3 0 0.1 0.1 0.3 0.1v3.3q-0.1 0-0.2 0-0.1 0-0.2 0 0 0-0.1 0-0.1 0-0.2 0-0.1 0-0.2 0-0.1 0-0.2 0 0 0-0.1 0-0.1 0-0.2 0-1.1 0-1.7 0.3-0.1 0-0.2 0.1-0.1 0.1-0.2 0.1-0.1 0.1-0.1 0.2-0.1 0.1-0.2 0.2-0.4 0.6-0.3 1.7v1.3h3.9l-0.4 2.1-0.3 1.6h-3.2v8.3c5.9-0.8 10.5-5.8 10.5-12 0-6.6-5.4-12-12-12-6.6 0-12 5.4-12 12 0 5.7 3.9 10.4 9.1 11.7z"/></svg>