<svg version="1.2" xmlns="http://www.w3.org/2000/svg" viewBox="0 0 24 24" width="24" height="24"><style>.a{fill:#2b2114}</style><path class="a" d="m7 0.1c-1.2 0-2.1 0.2-2.9 0.5-0.8 0.4-1.4 0.8-2.1 1.4-0.7 0.7-1.1 1.4-1.4 2.2-0.3 0.7-0.5 1.6-0.5 2.9-0.1 1.3-0.1 1.7-0.1 4.9 0 3.3 0 3.7 0.1 5 0 1.2 0.2 2.1 0.5 2.9 0.4 0.8 0.8 1.4 1.4 2.1 0.7 0.7 1.4 1.1 2.2 1.4 0.7 0.3 1.6 0.5 2.9 0.5 1.3 0.1 1.7 0.1 4.9 0.1 3.3 0 3.7 0 5-0.1 1.3 0 2.1-0.2 2.9-0.5 0.8-0.4 1.4-0.8 2.1-1.4 0.7-0.7 1.1-1.4 1.4-2.2 0.3-0.7 0.5-1.6 0.5-2.9 0.1-1.3 0.1-1.7 0.1-4.9 0-3.3 0-3.7-0.1-5 0-1.2-0.2-2.1-0.5-2.9-0.4-0.8-0.8-1.4-1.4-2.1-0.7-0.7-1.4-1.1-2.2-1.4-0.7-0.3-1.6-0.5-2.9-0.5-1.3-0.1-1.7-0.1-4.9-0.1-3.3 0-3.7 0-5 0.1zm0.2 21.7c-1.2-0.1-1.8-0.3-2.3-0.4-0.5-0.2-0.9-0.5-1.3-0.9-0.5-0.4-0.7-0.8-0.9-1.4-0.2-0.4-0.4-1.1-0.5-2.2 0-1.3 0-1.7 0-4.9 0-3.2 0-3.6 0-4.8 0.1-1.2 0.3-1.8 0.4-2.3 0.2-0.5 0.5-0.9 0.9-1.3 0.4-0.5 0.8-0.7 1.4-0.9 0.4-0.2 1.1-0.4 2.2-0.5 1.3 0 1.7 0 4.9 0 3.2 0 3.6 0 4.8 0 1.2 0.1 1.8 0.3 2.3 0.4 0.5 0.3 0.9 0.5 1.3 0.9 0.5 0.4 0.7 0.8 0.9 1.4 0.2 0.4 0.4 1.1 0.5 2.2 0 1.3 0 1.7 0 4.9 0 3.2 0 3.6 0 4.8-0.1 1.2-0.3 1.8-0.4 2.3-0.2 0.5-0.5 0.9-0.9 1.3-0.4 0.5-0.8 0.7-1.4 0.9-0.4 0.2-1.1 0.4-2.2 0.5-1.3 0-1.7 0-4.9 0-3.2 0-3.6 0-4.8 0zm9.8-16.2c0 0.6 0.3 1.1 0.8 1.3 0.6 0.2 1.2 0.1 1.6-0.3 0.4-0.4 0.5-1 0.3-1.6-0.2-0.5-0.7-0.9-1.3-0.9q-0.3 0-0.6 0.2-0.2 0.1-0.4 0.3-0.2 0.2-0.3 0.4-0.1 0.3-0.1 0.6zm-11.2 6.4c0 3.4 2.8 6.2 6.2 6.2 3.4 0 6.2-2.8 6.2-6.2 0-3.4-2.8-6.2-6.2-6.2-3.4 0-6.2 2.8-6.2 6.2zm2.2 0c0-1.6 1-3.1 2.5-3.7 1.5-0.6 3.2-0.3 4.3 0.9 1.2 1.1 1.5 2.8 0.9 4.3-0.6 1.5-2.1 2.5-3.7 2.5q-0.8 0-1.5-0.3-0.8-0.3-1.3-0.9-0.6-0.5-0.9-1.3-0.3-0.7-0.3-1.5z"/></svg>