<svg version="1.2" xmlns="http://www.w3.org/2000/svg" viewBox="0 0 512 512" width="512" height="512"><style></style><filter id="f0"><feFlood flood-color="#2b2114" flood-opacity="1" /><feBlend mode="normal" in2="SourceGraphic"/><feComposite in2="SourceAlpha" operator="in" /></filter><g filter="url(#f0)"><path  d="m480 224h-448c-17.7 0-32 14.3-32 32 0 17.7 14.3 32 32 32h448c17.7 0 32-14.3 32-32 0-17.7-14.3-32-32-32z"/><path  d="m32 138.7h448c17.7 0 32-14.4 32-32 0-17.7-14.3-32-32-32h-448c-17.7 0-32 14.3-32 32 0 17.6 14.3 32 32 32z"/><path  d="m480 373.3h-448c-17.7 0-32 14.4-32 32 0 17.7 14.3 32 32 32h448c17.7 0 32-14.3 32-32 0-17.6-14.3-32-32-32z"/></g></svg>