<svg version="1.2" xmlns="http://www.w3.org/2000/svg" viewBox="0 0 24 24" width="24" height="24"><style>.a{fill:#2b2114}</style><path class="a" d="m12 0c-6.8 0-12 5-12 11.6 0 3.5 1.4 6.6 3.8 8.7q0 0 0.1 0.1 0.1 0.1 0.1 0.2 0 0 0.1 0.1 0 0.1 0 0.2l0.1 2.2q0 0.2 0.1 0.4 0.1 0.2 0.3 0.4 0.2 0.1 0.4 0.1 0.3 0 0.5-0.1l2.4-1q0.1-0.1 0.1-0.1 0.1 0 0.2 0 0.1 0 0.2 0 0 0 0.1 0 0.4 0.1 0.9 0.2 0.4 0.1 0.8 0.2 0.5 0 0.9 0.1 0.5 0 0.9 0c6.8 0 12-5 12-11.7 0-6.6-5.2-11.6-12-11.6zm6.8 7.4c0.5 0 1 0.6 0.6 1.1l-4.1 6.5q-0.1 0.1-0.2 0.2-0.2 0.1-0.3 0.1-0.1 0-0.3 0-0.1 0-0.2-0.1l-3.9-2.5q0 0-0.1-0.1-0.1 0-0.1 0-0.1 0-0.2 0 0 0.1-0.1 0.1l-4.3 3c-0.7 0.4-1.5-0.3-1-1l4.1-6.4q0.1-0.1 0.2-0.2 0.1-0.1 0.3-0.1 0.1 0 0.3 0 0.1 0 0.2 0.1l3.9 2.5c0.1 0.1 0.3 0.1 0.5 0l4.3-3q0.1-0.1 0.1-0.1 0.1 0 0.1 0 0.1 0 0.1 0 0.1-0.1 0.1-0.1z"/></svg>