<svg version="1.2" xmlns="http://www.w3.org/2000/svg" viewBox="0 0 512 512" width="512" height="512"><style>.a{fill:#2b2014}</style><path class="a" d="m277.3 21.3c0-2.8 0.6-5.5 1.7-8.1 1-2.6 2.6-5 4.6-7 2-1.9 4.3-3.5 6.9-4.6 2.6-1 5.4-1.6 8.2-1.6 28 0 55.7 5.6 81.6 16.3 25.8 10.7 49.3 26.4 69.1 46.3 19.9 19.8 35.6 43.3 46.3 69.1 10.7 25.9 16.3 53.6 16.3 81.6 0 5.7-2.2 11.1-6.2 15.1-4 4-9.5 6.3-15.1 6.3-5.7 0-11.1-2.3-15.1-6.3-4-4-6.3-9.4-6.3-15.1 0-22.4-4.4-44.6-13-65.2-8.6-20.7-21.2-39.5-37-55.4-15.9-15.8-34.7-28.4-55.4-37-20.6-8.6-42.8-13-65.2-13-2.8 0-5.6-0.6-8.2-1.7-2.6-1-4.9-2.6-6.9-4.6-2-2-3.6-4.3-4.6-6.9-1.1-2.6-1.7-5.4-1.7-8.2zm215.4 335.8c6.1 6.1 10.9 13.4 14.2 21.4 3.4 8 5.1 16.6 5.1 25.3 0 8.7-1.7 17.3-5.1 25.3-3.3 8-8.1 15.3-14.2 21.4l-19.5 22.4c-174.7 167.2-599.9-257.8-435.2-433.1l24.6-21.3c6.1-6 13.4-10.7 21.3-13.8 8-3.2 16.4-4.8 25-4.7 8.6 0 17 1.8 24.9 5.1 7.9 3.3 15 8.2 21.1 14.2 0.6 0.7 40.2 52 40.2 52 5.8 6.1 10.4 13.3 13.5 21.1 3.1 7.9 4.7 16.2 4.7 24.6 0 8.5-1.6 16.8-4.8 24.6-3.1 7.9-7.7 15-13.6 21.1l-24.7 31c6.8 16.6 15.3 32.5 25.2 47.4 9.9 14.9 21.3 28.8 34 41.5 12.6 12.7 26.5 24.1 41.4 34 14.9 10 30.7 18.5 47.3 25.3l31.2-24.8c6.1-5.9 13.3-10.5 21.1-13.6 7.8-3.2 16.1-4.8 24.6-4.8 8.4 0 16.7 1.6 24.6 4.7 7.8 3.1 15 7.7 21.1 13.5 6.1 5.8 51.3 39.5 52 40.2zm-29.4 31c0 0-51.1-39.3-51.7-39.9-2.2-2.2-4.8-3.9-7.6-5.1-2.8-1.1-5.9-1.7-8.9-1.7-3.1 0-6.1 0.6-9 1.7-2.8 1.2-5.4 2.9-7.6 5.1-0.5 0.6-43.6 34.9-43.6 34.9q-2.1 1.7-4.7 2.8-2.5 1.1-5.3 1.6-2.7 0.4-5.5 0.1-2.8-0.3-5.4-1.3c-21.4-8-41.9-18.2-61.2-30.6-19.2-12.3-37.1-26.7-53.3-42.9-16.2-16.2-30.6-34-43-53.2-12.3-19.3-22.6-39.8-30.6-61.2q-1.1-2.6-1.4-5.5-0.4-2.8 0-5.6 0.4-2.8 1.6-5.4 1.1-2.6 2.9-4.8c1.1-1.5 34.2-43.1 34.8-43.6 2.2-2.2 3.9-4.8 5.1-7.6 1.1-2.9 1.7-5.9 1.7-9 0-3-0.6-6.1-1.7-8.9-1.2-2.8-2.9-5.4-5.1-7.6-0.6-0.6-39.9-51.7-39.9-51.7-2.2-2-4.8-3.5-7.6-4.6-2.8-1-5.7-1.5-8.7-1.4-3 0.1-5.9 0.7-8.6 1.9-2.7 1.1-5.2 2.8-7.3 4.9l-24.6 21.3c-120.3 144.8 248.1 492.8 374.9 372.9l19.5-22.4c2.2-2.1 4.1-4.6 5.4-7.3 1.3-2.8 2-5.8 2.2-8.9 0.2-3.1-0.2-6.2-1.2-9.1-1-2.9-2.6-5.6-4.6-7.9zm-164.6-260.1c11.2 0 22.3 2.2 32.6 6.5 10.4 4.3 19.8 10.6 27.7 18.5 7.9 7.9 14.2 17.3 18.5 27.7 4.3 10.3 6.5 21.4 6.5 32.6 0 5.7 2.2 11.1 6.2 15.1 4 4 9.5 6.3 15.1 6.3 5.7 0 11.1-2.3 15.1-6.3 4-4 6.3-9.4 6.3-15.1-0.1-16.8-3.4-33.4-9.8-48.9-6.4-15.6-15.9-29.7-27.8-41.5-11.8-11.9-25.9-21.4-41.5-27.8-15.5-6.4-32.1-9.7-48.9-9.8-5.7 0-11.1 2.3-15.1 6.3-4 4-6.3 9.4-6.3 15.1 0 5.6 2.3 11.1 6.3 15.1 4 4 9.4 6.2 15.1 6.2z"/></svg>